Patient4_TMGait_0pt3_01_right_12_EMG.mot
version=1
nRows=40
nColumns=33
inDegrees=no
endheader
time	1LAddLong	2LGlutMax	3LGlutMed	4LIliopsoas	5LSemiMemb	6LBicFemLong	7LRecFem	8LVastMed	9LVastLat	10LGasMed	11LTibAnt	12lTibPost	13LPeroneusLong	14LSol	15LExtDigLong	16LFlexDigLong	17RAddLong	18RGlutMax	19RGlutMed	20RIliopsoas	21RSemiMemb	22RBicFemLong	23RRecFem	24RVastMed	25RVastLat	26RGasMed	27RTibAnt	28RTibPost	29RPeroneusLong	30RSol	31RExtDigLong	32RFlexDigLong
23.313	0.014954	-0.11383	-0.12329	-0.014191	0.031128	-0.66452	0.056	0.029297	0.16312	-0.15717	0.024109	0.00061	-0.55267	-0.17761	0.055847	-0.028534	-0.039673	0.018158	-0.35416	-0.099487	0.014343	0.041046	0.090942	-0.049286	-0.046234	0.007782	0.74677	0	0.10361	-0.049896	-0.001221	-0.003662
23.314	0.014648	-0.19684	-0.10651	0.001984	0.016785	-0.42618	0.088348	0.036469	0.006561	-0.11765	0.022278	-0.027008	-0.69717	-0.4657	-0.055084	-0.033417	-0.034943	0.057373	-0.23178	-0.060272	0.013885	0.049286	0.098114	-0.044098	-0.050049	0.003967	0.33814	0.004578	0.026093	-0.14114	-0.002594	-0.0177
23.315	0.006561	-0.24475	-0.11993	-0.013885	0.023804	-0.20554	-0.037689	0.020752	-0.013275	-0.09613	-0.048218	-0.007477	-0.25299	-0.54596	-0.15243	0.02655	-0.022736	0.055695	-0.10361	-0.066528	0.067596	-0.003662	0.084534	-0.027924	-0.053864	0.005798	-0.47913	0.005646	0.13534	0.023651	-0.001678	-0.011597
23.316	0.011139	-0.32425	-0.24048	-0.010681	0.020294	0.037994	-0.16312	0.012207	0.010071	-0.086823	-0.014648	-0.007782	-0.06424	-0.26245	0.010834	-0.038147	-0.012817	0.024719	-0.049744	0.017853	0.076599	0.019226	0.096283	-0.014343	-0.053406	0.017395	-0.74509	0.006714	0.37689	0.13565	-0.00351	-0.010071
23.317	0.006104	-0.29343	-0.086365	-0.019531	0.033722	-0.12589	-0.18387	0.015564	0.072327	-0.096741	0.005035	0.007172	0.062103	-0.24048	0.02121	-0.019836	-0.004272	0.071106	-0.38147	0.003967	0.045319	0.025482	0.071564	-0.009766	-0.028534	0.022278	-1.2607	0.002594	0.44617	0.05249	-0.00061	-0.000153
23.318	0.010376	-0.18768	-0.14191	-0.046082	0.03479	-0.46783	-0.15259	0.007629	0.14343	-0.057068	-0.001068	0.004425	-0.18539	-0.12924	-0.015869	-0.036011	-0.017853	0.055542	-0.35934	-0.048828	0.036926	0.036163	0.031586	-0.046539	-0.024261	0.0177	-0.54077	0.002747	0.28259	-0.068512	-0.001984	0.000458
23.319	0.003204	-0.21393	-0.25955	-0.009918	0.018616	-0.19714	-0.053101	0.000458	0.22003	-0.032654	0.005646	0.001526	-0.17975	-0.085449	-0.012207	-0.032196	-0.011292	0.075836	-0.41718	-0.12039	0.012512	0.04715	0.072632	-0.022125	-0.026855	0.013885	-0.24002	0.001678	0.19531	-0.027618	-0.003662	-0.00885
23.32	0.006256	-0.24384	-0.25177	-0.002747	-0.00061	0.22629	-0.090637	0.007324	0.19073	-0.048981	0.00885	0.007019	-0.041656	0.004578	0.037537	-0.024872	-0.007477	0.068512	-0.45944	-0.20706	0.022888	0.028992	0.055389	0.029602	-0.02182	0.00946	-0.23712	-0.001678	0.083771	0.09201	-0.006714	-0.005798
23.321	0.001526	-0.28183	-0.17212	0.005798	-0.007172	0.23789	-0.11017	-0.001068	0.065918	-0.056458	-0.030518	0.001831	0.39688	-0.13855	-0.044861	-0.014496	0.00351	0.10117	-0.36697	-0.23972	0.025635	0.052643	0.055237	-0.015411	-0.006714	-0.007782	0.36789	-0.002289	-0.099945	0.11566	-0.003052	-0.009308
23.322	0.006866	-0.25513	0.084534	-0.009918	-0.002136	-0.099792	-0.029602	-0.010986	0.029144	-0.006256	-0.020142	-0.005188	0.14069	-0.030975	-0.020447	-0.020905	0.014191	0.15091	-0.5101	-0.19394	0.036926	0.046082	0.032501	-0.068054	-0.013275	-0.007782	0.76996	0.002747	-0.16403	0.032654	-0.002899	-0.007782
23.323	0.01297	-0.20462	0.007019	0.00946	-0.010834	-0.025635	0.011444	-0.014648	0.005035	0.025482	-0.000916	0.009155	-0.25436	0.056915	0.007477	-0.027771	0.01709	0.1152	-0.55649	0.073547	0.03067	0.045624	0.009155	0.035553	-0.016174	0.001678	0.88074	0.00351	-0.23361	0.001526	-0.001373	-0.013428
23.324	0.007629	-0.086517	-0.075989	0.037994	-0.008392	0.083313	-0.026093	0.027618	0.032196	-0.075989	-0.026703	-0.006104	0.059814	0.24643	0.07019	-0.035248	0.006714	0.19134	-0.64285	0.065308	0.032654	0.054932	0.038757	0.008087	-0.035248	-0.005341	0.56335	-0.004578	-0.20493	0.067902	-0.002289	-0.005493
23.325	0.011444	-0.056915	-0.015106	-0.002136	-0.007019	-0.086975	-0.11536	0.036621	-0.012512	-0.092163	-0.007324	0.000763	-0.029297	0.19104	0.052338	-0.02594	0.001373	0.19486	-0.62317	0.062256	0.032349	0.051575	0.015717	0.020905	-0.02655	0.006866	-0.97488	-0.000458	0.056152	0.071869	-0.008698	0.001678
23.326	0.010071	-0.044708	-0.053558	0.004883	0.007629	-0.19684	-0.047913	0.023956	-0.031433	-0.073395	0.005035	0.000458	-0.054779	0.046997	-0.012054	-0.019226	0.024872	0.1239	-0.62927	0.12833	0.032959	0.044556	0.054016	-0.030975	-0.037689	0.004425	-0.68512	0.00061	0.10971	0.077515	0	-0.010834
23.327	0.004272	-0.018158	0.063171	-0.001373	0.028229	-0.26962	0.014038	0.00824	-0.040131	-0.002136	0.001068	-0.001984	0.1767	-0.43625	-0.036163	-0.024872	0.036774	0.1326	-0.52429	0.25879	0.050049	0.020752	0.069427	-0.052795	-0.009003	0.006104	-0.15671	-0.004425	0.19608	0.10803	-0.000916	-0.010223
23.328	0.003967	0.002899	0.054932	-0.000916	0.025787	-0.072174	-0.040131	-0.004272	0.005493	0.033112	-0.006409	-0.005798	0.26718	-0.20157	0	-0.015717	0.025024	0.089417	-0.29785	0.12528	0.074615	0.012665	0.059052	-0.010986	-0.01709	-0.00473	0.83679	-0.002899	0.066986	0.059814	-0.00412	-0.002289
23.329	-0.000763	0.008698	0.014648	-0.000763	0.018616	0.029602	-0.043945	-0.008392	0.028534	-0.006104	-0.018311	-0.026093	-0.11795	-0.12299	0.039673	-0.023193	0.016632	0.10635	-0.67764	0.13916	0.085907	0.000458	0.085297	-0.032043	-0.026398	-0.002899	1.3736	-0.003967	-0.024719	-0.003662	-0.00061	-0.006409
23.33	0.000916	0.016632	0.11795	-0.003204	-0.00885	-0.023956	0.029449	0.021362	-0.085144	0.009918	0.016937	-0.002136	-0.68695	-0.015106	0.054169	-0.029144	0.068054	0.13809	-0.72403	0.17929	0.031281	0.058289	0.066833	-0.041199	-0.032196	-0.006714	1.2531	-0.005951	-0.062408	0.007172	-0.001678	-0.00885
23.331	-0.000153	0.014496	0.14496	0.011444	0.006866	-0.10925	0.027466	0.023499	-0.15656	0.017395	0.022888	0.010071	-0.22614	0.024872	-0.024109	-0.035248	0.14206	0.15121	-0.58624	0.16907	-0.041351	0.10376	0.030823	-0.053864	-0.024261	0.001678	0.48584	0.002899	0.058899	-0.045166	-0.002441	-0.006104
23.332	-0.002289	0.044708	0.024261	0.014801	-0.002899	-0.11566	-0.036469	0.046082	-0.2742	-0.08255	-0.013733	0.00885	0.61615	0.19272	0.05661	-0.008698	0.12238	0.21362	-0.34073	0.16724	-0.048218	0.099945	0.02655	-0.070648	-0.018311	0.004883	-0.79773	-0.000305	0.12344	-0.067902	-0.004578	-0.007019
23.333	-0.010529	-0.013428	0.02655	0.00351	-0.000153	0.037231	-0.077972	0.070343	-0.17288	-0.15228	-0.029297	0.008698	0.67505	0.23514	0.07843	-0.072632	0.056305	0.24628	-0.48996	0.14771	-0.029297	0.054626	0.10391	0.002441	-0.028381	0.00473	-1.3243	-0.00412	0.027924	-0.087738	0	-0.003204
23.334	0.005493	0.036469	-0.058136	0.001526	-0.007324	0.17166	-0.1091	0.05249	0.054779	-0.094757	0.011597	0.001373	0.45853	0.11231	0.01358	-0.019531	0.001678	0.21637	-0.66009	0.085144	-0.011597	0.050659	0.046234	0.00061	-0.031128	-0.005798	-0.5011	0.007172	-0.057373	-0.15045	-0.001526	-0.010529
23.335	0.005341	0.063171	0.067139	0.014496	-0.014343	0.15717	-0.082397	0.03418	0.3035	-0.090637	-0.003357	0.00885	0.054779	0.039368	0.053406	-0.011292	-0.049286	0.22492	-0.55847	-0.048523	-0.030212	0.059204	0.076447	0.030975	-0.013123	0.006256	0.035095	-0.004425	-0.028076	-0.16281	-0.001373	-0.014038
23.336	0.017548	0.093536	0.15366	0.016632	-0.008087	0.23331	-0.10361	0.040588	0.41626	-0.023346	0.011444	0.00946	0.13336	0.006256	0.047302	-0.009766	-0.10391	0.23666	-0.25787	-0.21393	-0.066071	0.10605	0.040436	-0.000458	0.007629	-0.002747	-0.28091	-0.001984	0.087128	-0.1387	-0.005951	-0.014496
23.337	0.00351	0.082245	0.36804	-0.002136	-0.006561	0.46173	-0.20935	0.024261	0.26382	0.019531	-0.008087	0.012054	-0.2243	0.10498	-0.00885	-0.015259	-0.10437	0.21545	-0.011139	-0.22385	-0.054321	0.11993	0.019684	0.038452	-0.007172	-0.001984	-0.43594	-0.005035	0.096588	0.009918	-0.004272	-0.00885
23.338	0.006104	0.065765	0.2092	-0.008698	0.002289	0.62958	-0.15259	0.015564	0.069885	0.02182	-0.017242	0.001221	-0.75226	0.19287	-0.06485	-0.017242	-0.090027	0.19241	-0.044861	-0.2739	-0.009766	0.10117	-0.030365	0.031586	0.00885	0.003357	-0.089264	-0.004272	-0.045013	0.12207	0	-0.014191
23.339	0.002136	0.061188	0.20447	-0.018768	0.004272	0.54474	-0.1062	-0.032043	-0.097656	0.021362	0.013275	0.023346	0.039673	0.13794	-0.053711	-0.039368	-0.077515	0.16647	-0.80399	-0.22308	0.023956	0.11475	-0.1062	0.020752	0.024719	-0.002899	-0.013885	0.000458	-0.026093	0.15243	-0.003662	0.001984
23.34	0.014191	0.030212	0.07431	-0.027924	0.011292	0.69977	-0.066986	-0.049286	-0.18662	-0.003052	-0.006104	0.012054	0.5806	-0.01236	-0.053558	-0.024719	-0.08728	0.14496	-0.86395	-0.017395	0.034943	0.098724	-0.079956	0.07019	0.015869	0	-0.033569	0.001831	0.014191	0.051422	-0.000916	-0.009613
23.341	0.011292	0.036774	-0.063171	-0.023651	0.01236	0.43518	-0.11704	-0.054169	-0.16754	-0.026245	-0.029449	0.019989	0.73364	-0.001984	-0.010376	-0.003357	-0.083618	0.14252	-0.57114	0.064087	0.051422	0.077667	-0.041656	0.084839	0.00824	-0.00061	-0.085449	0.001068	0.006256	-0.019836	0.00473	-0.008392
23.342	0.000305	0.002441	-0.12329	-0.024414	0.004272	0.45944	-0.066376	-0.061035	-0.15533	-0.11597	-0.023651	0.017242	-0.30411	0.19943	0.1738	-0.061035	-0.067596	0.091858	-0.84366	0.09964	0.056	0.046539	-0.056458	0.085449	-0.00061	0.001221	0.018616	-0.004578	0.000763	-0.057526	-0.003052	-0.00824
23.343	0.009613	0.06897	0.029755	-0.003357	0.00351	0.50079	-0.12573	-0.051422	-0.043945	-0.13519	0.012665	0.00412	-0.66299	-0.048828	0.032654	0.008392	-0.044556	0.19073	-0.90714	0.13016	0.035858	-0.005188	-0.007172	0.071106	-0.019379	-0.007019	-0.085754	-0.001068	-0.10483	0.037384	-0.002747	-0.008698
23.344	0.019836	0.008698	-0.072632	-0.018768	0.014191	0.1239	-0.15762	-0.040741	0.076447	-0.056763	0.028076	0.024109	-0.42709	-0.21698	-0.049286	0.016785	-0.013733	0.14847	-0.99945	0.22522	0.02121	-0.041809	0.03067	0.072021	-0.013733	-0.006104	-0.08316	-0.004578	-0.005188	0.074005	-0.001526	-0.002289
23.345	0.006714	-0.080109	-0.058746	-0.003357	0.010223	-0.62225	-0.071106	-0.022888	0.15289	-0.092621	0.008087	-0.025482	-0.80139	-0.043182	0.0383	0.009766	0.017395	0.12314	-0.45639	0.19424	0.005646	-0.039368	-0.009918	0.019073	-0.042419	-0.005188	0.11841	-0.00473	0.028992	0.031433	-0.002899	-0.003967
23.346	0.005798	-0.004425	0.11383	0.003204	-0.000916	-0.29129	-0.037689	-0.015717	0.13977	-0.1207	-0.008698	-0.03418	0.52795	-0.10712	-0.066528	-0.00946	0.022736	0.15167	-0.54718	0.09079	-0.005798	-0.071411	0.037689	-0.062408	-0.062714	-0.007629	0.13992	0.002441	-0.04837	0.051727	-0.003967	-0.000916
23.347	0.013123	-0.017242	0.099792	0.029755	-0.004883	0.25116	0.000763	-0.012817	0.072327	-0.072784	-0.016022	0.006714	0.13473	-0.16571	-0.16434	-0.043488	0.036469	0.15091	-0.41794	0.050354	-0.020294	-0.073853	0.088043	-0.14084	-0.060883	-0.016632	0.2005	-0.000458	-0.046844	0.074768	0.000916	-0.006256
23.348	0.008087	-0.005951	-0.097198	0.025635	-0.003052	0.11643	0.030212	-0.000916	0.051117	0.15259	-0.031433	0.019989	-0.177	-0.27618	-0.18738	-0.069275	0.037842	0.094299	-0.46493	-0.01297	-0.023651	-0.1091	0.036774	-0.12589	-0.070648	-0.010071	0.4277	-0.00473	-0.088959	0.037689	-0.002747	-0.009003
23.349	0.009308	-0.010986	-0.075989	0.006409	0.01358	-0.34912	0.021057	0.011749	0.050049	0.18906	-0.013885	0.012665	0.31143	-0.19592	-0.058441	-0.036926	0.025482	0.087128	-0.26016	-0.061493	-0.011597	-0.080719	0.056763	-0.093384	-0.05188	-0.005798	0.5484	-0.000305	-0.022278	-0.0914	-0.001526	-0.00824
23.35	0.004883	-0.013275	0.15091	0.00351	-0.001526	-0.16922	-0.02243	0.016479	0.074005	0.23651	0.005035	0.019379	0.10544	-0.095062	0.10635	-0.059357	0.022736	0.13916	-0.4277	-0.045013	-0.022583	-0.074921	0.037994	-0.040436	-0.050201	0.000916	0.33035	0.000305	-0.021667	-0.1918	-0.007935	-0.010071
23.351	0.001526	-0.050507	-0.00946	0.016479	-0.011902	-0.76599	-0.038605	0.010071	0.070343	0.053864	-0.024109	-0.006256	-0.35675	-0.44083	0.12375	-0.067596	0.025177	0.11688	-0.47363	-0.012665	-0.083466	-0.071869	0.020599	-0.022736	-0.030975	-0.00351	0.063171	-0.002747	-0.13626	-0.13611	-0.004425	-0.008545
23.352	0.009155	-0.045166	-0.11398	-0.001221	0.000763	-0.80536	-0.074463	0.005341	0.066986	-0.048065	0.010376	0.002289	-0.1918	-0.27649	0.036926	0.068817	0.030975	0.11612	-0.63065	-0.014038	-0.1384	-0.026093	0.021362	-0.052338	-0.022583	0.000763	-0.057068	0.003204	-0.091553	-0.098267	-0.003052	-0.007019
